<mxfile host="Electron" agent="Mozilla/5.0 (Macintosh; Intel Mac OS X 10_15_7) AppleWebKit/537.36 (KHTML, like Gecko) draw.io/26.0.9 Chrome/128.0.6613.186 Electron/32.2.5 Safari/537.36" version="26.0.9">
  <diagram id="C5RBs43oDa-KdzZeNtuy" name="Page-1">
    <mxGraphModel dx="1781" dy="608" grid="1" gridSize="10" guides="1" tooltips="1" connect="1" arrows="1" fold="1" page="1" pageScale="1" pageWidth="827" pageHeight="1169" math="0" shadow="0">
      <root>
        <mxCell id="WIyWlLk6GJQsqaUBKTNV-0" />
        <mxCell id="WIyWlLk6GJQsqaUBKTNV-1" parent="WIyWlLk6GJQsqaUBKTNV-0" />
        <mxCell id="yd8T2iFx35O8DrpGIfBC-0" value="Home/LandingPage" style="ellipse;whiteSpace=wrap;html=1;align=center;newEdgeStyle={&quot;edgeStyle&quot;:&quot;entityRelationEdgeStyle&quot;,&quot;startArrow&quot;:&quot;none&quot;,&quot;endArrow&quot;:&quot;none&quot;,&quot;segment&quot;:10,&quot;curved&quot;:1,&quot;sourcePerimeterSpacing&quot;:0,&quot;targetPerimeterSpacing&quot;:0};treeFolding=1;treeMoving=1;" parent="WIyWlLk6GJQsqaUBKTNV-1" vertex="1">
          <mxGeometry x="180" y="10" width="150" height="90" as="geometry" />
        </mxCell>
        <mxCell id="Csb0ddg03DipR_3-16nn-6" value="" style="edgeStyle=orthogonalEdgeStyle;rounded=0;orthogonalLoop=1;jettySize=auto;html=1;" edge="1" parent="WIyWlLk6GJQsqaUBKTNV-1" source="yd8T2iFx35O8DrpGIfBC-1" target="Csb0ddg03DipR_3-16nn-5">
          <mxGeometry relative="1" as="geometry" />
        </mxCell>
        <mxCell id="yd8T2iFx35O8DrpGIfBC-1" value="Simple in design with a toggle-able light mode and a login/ registration form&amp;nbsp;" style="whiteSpace=wrap;html=1;aspect=fixed;" parent="WIyWlLk6GJQsqaUBKTNV-1" vertex="1">
          <mxGeometry x="250" y="170" width="120" height="120" as="geometry" />
        </mxCell>
        <mxCell id="yd8T2iFx35O8DrpGIfBC-2" value="" style="endArrow=classic;html=1;rounded=0;fontSize=12;startSize=8;endSize=8;curved=1;exitX=1;exitY=1;exitDx=0;exitDy=0;entryX=0.5;entryY=0;entryDx=0;entryDy=0;" parent="WIyWlLk6GJQsqaUBKTNV-1" source="yd8T2iFx35O8DrpGIfBC-0" target="yd8T2iFx35O8DrpGIfBC-1" edge="1">
          <mxGeometry width="50" height="50" relative="1" as="geometry">
            <mxPoint x="489" y="140" as="sourcePoint" />
            <mxPoint x="539" y="90" as="targetPoint" />
          </mxGeometry>
        </mxCell>
        <mxCell id="Csb0ddg03DipR_3-16nn-4" style="edgeStyle=orthogonalEdgeStyle;rounded=0;orthogonalLoop=1;jettySize=auto;html=1;entryX=1;entryY=0.25;entryDx=0;entryDy=0;" edge="1" parent="WIyWlLk6GJQsqaUBKTNV-1" source="yd8T2iFx35O8DrpGIfBC-12" target="yd8T2iFx35O8DrpGIfBC-1">
          <mxGeometry relative="1" as="geometry" />
        </mxCell>
        <mxCell id="yd8T2iFx35O8DrpGIfBC-12" value="Toggles light or dark Mode" style="rounded=1;whiteSpace=wrap;html=1;arcSize=50;" parent="WIyWlLk6GJQsqaUBKTNV-1" vertex="1">
          <mxGeometry x="420" y="150" width="120" height="60" as="geometry" />
        </mxCell>
        <mxCell id="yd8T2iFx35O8DrpGIfBC-23" style="edgeStyle=none;curved=1;rounded=0;orthogonalLoop=1;jettySize=auto;html=1;entryX=0.5;entryY=0;entryDx=0;entryDy=0;fontSize=12;startSize=8;endSize=8;" parent="WIyWlLk6GJQsqaUBKTNV-1" edge="1">
          <mxGeometry relative="1" as="geometry">
            <mxPoint x="240" y="400" as="sourcePoint" />
            <mxPoint x="240" y="460" as="targetPoint" />
          </mxGeometry>
        </mxCell>
        <mxCell id="Csb0ddg03DipR_3-16nn-15" value="Login" style="edgeLabel;html=1;align=center;verticalAlign=middle;resizable=0;points=[];" vertex="1" connectable="0" parent="yd8T2iFx35O8DrpGIfBC-23">
          <mxGeometry x="-0.2" relative="1" as="geometry">
            <mxPoint as="offset" />
          </mxGeometry>
        </mxCell>
        <mxCell id="Csb0ddg03DipR_3-16nn-12" value="" style="edgeStyle=orthogonalEdgeStyle;rounded=0;orthogonalLoop=1;jettySize=auto;html=1;entryX=0.5;entryY=0;entryDx=0;entryDy=0;" edge="1" parent="WIyWlLk6GJQsqaUBKTNV-1" source="yd8T2iFx35O8DrpGIfBC-22" target="Csb0ddg03DipR_3-16nn-21">
          <mxGeometry relative="1" as="geometry">
            <mxPoint x="390" y="525" as="targetPoint" />
          </mxGeometry>
        </mxCell>
        <mxCell id="Csb0ddg03DipR_3-16nn-13" value="False" style="edgeLabel;html=1;align=center;verticalAlign=middle;resizable=0;points=[];" vertex="1" connectable="0" parent="Csb0ddg03DipR_3-16nn-12">
          <mxGeometry x="0.0922" y="-1" relative="1" as="geometry">
            <mxPoint as="offset" />
          </mxGeometry>
        </mxCell>
        <mxCell id="yd8T2iFx35O8DrpGIfBC-22" value="Does Account&amp;nbsp;&lt;div&gt;Exist?&lt;/div&gt;" style="shape=parallelogram;perimeter=parallelogramPerimeter;whiteSpace=wrap;html=1;fixedSize=1;" parent="WIyWlLk6GJQsqaUBKTNV-1" vertex="1">
          <mxGeometry x="174" y="460" width="120" height="60" as="geometry" />
        </mxCell>
        <mxCell id="Csb0ddg03DipR_3-16nn-23" style="edgeStyle=orthogonalEdgeStyle;rounded=0;orthogonalLoop=1;jettySize=auto;html=1;entryX=0;entryY=0.5;entryDx=0;entryDy=0;" edge="1" parent="WIyWlLk6GJQsqaUBKTNV-1" source="yd8T2iFx35O8DrpGIfBC-36" target="yd8T2iFx35O8DrpGIfBC-40">
          <mxGeometry relative="1" as="geometry">
            <Array as="points">
              <mxPoint x="560" y="890" />
            </Array>
          </mxGeometry>
        </mxCell>
        <mxCell id="yd8T2iFx35O8DrpGIfBC-36" value="Register Info" style="swimlane;fontStyle=0;childLayout=stackLayout;horizontal=1;startSize=30;horizontalStack=0;resizeParent=1;resizeParentMax=0;resizeLast=0;collapsible=1;marginBottom=0;whiteSpace=wrap;html=1;" parent="WIyWlLk6GJQsqaUBKTNV-1" vertex="1">
          <mxGeometry x="500" y="685" width="140" height="110" as="geometry" />
        </mxCell>
        <mxCell id="yd8T2iFx35O8DrpGIfBC-37" value="Email" style="text;strokeColor=none;fillColor=none;align=left;verticalAlign=middle;spacingLeft=4;spacingRight=4;overflow=hidden;points=[[0,0.5],[1,0.5]];portConstraint=eastwest;rotatable=0;whiteSpace=wrap;html=1;" parent="yd8T2iFx35O8DrpGIfBC-36" vertex="1">
          <mxGeometry y="30" width="140" height="30" as="geometry" />
        </mxCell>
        <mxCell id="yd8T2iFx35O8DrpGIfBC-38" value="Username" style="text;strokeColor=none;fillColor=none;align=left;verticalAlign=middle;spacingLeft=4;spacingRight=4;overflow=hidden;points=[[0,0.5],[1,0.5]];portConstraint=eastwest;rotatable=0;whiteSpace=wrap;html=1;" parent="yd8T2iFx35O8DrpGIfBC-36" vertex="1">
          <mxGeometry y="60" width="140" height="30" as="geometry" />
        </mxCell>
        <mxCell id="yd8T2iFx35O8DrpGIfBC-39" value="Password" style="text;strokeColor=none;fillColor=none;align=left;verticalAlign=middle;spacingLeft=4;spacingRight=4;overflow=hidden;points=[[0,0.5],[1,0.5]];portConstraint=eastwest;rotatable=0;whiteSpace=wrap;html=1;" parent="yd8T2iFx35O8DrpGIfBC-36" vertex="1">
          <mxGeometry y="90" width="140" height="20" as="geometry" />
        </mxCell>
        <mxCell id="Csb0ddg03DipR_3-16nn-26" style="edgeStyle=orthogonalEdgeStyle;rounded=0;orthogonalLoop=1;jettySize=auto;html=1;entryX=1;entryY=0.5;entryDx=0;entryDy=0;" edge="1" parent="WIyWlLk6GJQsqaUBKTNV-1" source="yd8T2iFx35O8DrpGIfBC-40" target="Csb0ddg03DipR_3-16nn-25">
          <mxGeometry relative="1" as="geometry" />
        </mxCell>
        <mxCell id="yd8T2iFx35O8DrpGIfBC-40" value="Send data to backend to be registered&amp;nbsp;&lt;div&gt;then redirect page back to login&lt;/div&gt;" style="shape=step;perimeter=stepPerimeter;whiteSpace=wrap;html=1;fixedSize=1;size=20;direction=west;" parent="WIyWlLk6GJQsqaUBKTNV-1" vertex="1">
          <mxGeometry x="200" y="830" width="190" height="120" as="geometry" />
        </mxCell>
        <mxCell id="yd8T2iFx35O8DrpGIfBC-47" value="Part 1/2" style="text;strokeColor=none;fillColor=none;html=1;align=center;verticalAlign=middle;whiteSpace=wrap;rounded=0;fontSize=16;" parent="WIyWlLk6GJQsqaUBKTNV-1" vertex="1">
          <mxGeometry x="225" y="830" width="60" height="30" as="geometry" />
        </mxCell>
        <mxCell id="yd8T2iFx35O8DrpGIfBC-50" value="Logs in" style="rounded=0;whiteSpace=wrap;html=1;" parent="WIyWlLk6GJQsqaUBKTNV-1" vertex="1">
          <mxGeometry x="-80" y="520" width="200" height="80" as="geometry" />
        </mxCell>
        <mxCell id="yd8T2iFx35O8DrpGIfBC-51" value="UserHomePage" style="swimlane;fontStyle=0;childLayout=stackLayout;horizontal=1;startSize=30;horizontalStack=0;resizeParent=1;resizeParentMax=0;resizeLast=0;collapsible=1;marginBottom=0;whiteSpace=wrap;html=1;" parent="WIyWlLk6GJQsqaUBKTNV-1" vertex="1">
          <mxGeometry x="-80" y="650" width="140" height="180" as="geometry" />
        </mxCell>
        <mxCell id="yd8T2iFx35O8DrpGIfBC-52" value="-Profile" style="text;strokeColor=none;fillColor=none;align=left;verticalAlign=middle;spacingLeft=4;spacingRight=4;overflow=hidden;points=[[0,0.5],[1,0.5]];portConstraint=eastwest;rotatable=0;whiteSpace=wrap;html=1;" parent="yd8T2iFx35O8DrpGIfBC-51" vertex="1">
          <mxGeometry y="30" width="140" height="30" as="geometry" />
        </mxCell>
        <mxCell id="yd8T2iFx35O8DrpGIfBC-53" value="-TimeLine" style="text;strokeColor=none;fillColor=none;align=left;verticalAlign=middle;spacingLeft=4;spacingRight=4;overflow=hidden;points=[[0,0.5],[1,0.5]];portConstraint=eastwest;rotatable=0;whiteSpace=wrap;html=1;" parent="yd8T2iFx35O8DrpGIfBC-51" vertex="1">
          <mxGeometry y="60" width="140" height="30" as="geometry" />
        </mxCell>
        <mxCell id="yd8T2iFx35O8DrpGIfBC-54" value="-settings" style="text;strokeColor=none;fillColor=none;align=left;verticalAlign=middle;spacingLeft=4;spacingRight=4;overflow=hidden;points=[[0,0.5],[1,0.5]];portConstraint=eastwest;rotatable=0;whiteSpace=wrap;html=1;" parent="yd8T2iFx35O8DrpGIfBC-51" vertex="1">
          <mxGeometry y="90" width="140" height="30" as="geometry" />
        </mxCell>
        <mxCell id="yd8T2iFx35O8DrpGIfBC-56" value="-Recipe Storage/Download" style="text;strokeColor=none;fillColor=none;align=left;verticalAlign=middle;spacingLeft=4;spacingRight=4;overflow=hidden;points=[[0,0.5],[1,0.5]];portConstraint=eastwest;rotatable=0;whiteSpace=wrap;html=1;" parent="yd8T2iFx35O8DrpGIfBC-51" vertex="1">
          <mxGeometry y="120" width="140" height="30" as="geometry" />
        </mxCell>
        <mxCell id="yd8T2iFx35O8DrpGIfBC-57" value="-Create pdf/Cookbook" style="text;strokeColor=none;fillColor=none;align=left;verticalAlign=middle;spacingLeft=4;spacingRight=4;overflow=hidden;points=[[0,0.5],[1,0.5]];portConstraint=eastwest;rotatable=0;whiteSpace=wrap;html=1;" parent="yd8T2iFx35O8DrpGIfBC-51" vertex="1">
          <mxGeometry y="150" width="140" height="30" as="geometry" />
        </mxCell>
        <mxCell id="Csb0ddg03DipR_3-16nn-3" style="edgeStyle=orthogonalEdgeStyle;rounded=0;orthogonalLoop=1;jettySize=auto;html=1;entryX=0;entryY=0.25;entryDx=0;entryDy=0;" edge="1" parent="WIyWlLk6GJQsqaUBKTNV-1" source="Csb0ddg03DipR_3-16nn-2" target="yd8T2iFx35O8DrpGIfBC-1">
          <mxGeometry relative="1" as="geometry" />
        </mxCell>
        <mxCell id="Csb0ddg03DipR_3-16nn-2" value="Show information about app in clickable slideshow form" style="ellipse;whiteSpace=wrap;html=1;aspect=fixed;" vertex="1" parent="WIyWlLk6GJQsqaUBKTNV-1">
          <mxGeometry x="90" y="125" width="110" height="110" as="geometry" />
        </mxCell>
        <mxCell id="Csb0ddg03DipR_3-16nn-14" style="edgeStyle=orthogonalEdgeStyle;rounded=0;orthogonalLoop=1;jettySize=auto;html=1;entryX=0.5;entryY=0;entryDx=0;entryDy=0;" edge="1" parent="WIyWlLk6GJQsqaUBKTNV-1" source="Csb0ddg03DipR_3-16nn-5" target="Csb0ddg03DipR_3-16nn-21">
          <mxGeometry relative="1" as="geometry">
            <mxPoint x="390" y="525" as="targetPoint" />
          </mxGeometry>
        </mxCell>
        <mxCell id="Csb0ddg03DipR_3-16nn-17" value="Register" style="edgeLabel;html=1;align=center;verticalAlign=middle;resizable=0;points=[];" vertex="1" connectable="0" parent="Csb0ddg03DipR_3-16nn-14">
          <mxGeometry x="-0.4286" y="1" relative="1" as="geometry">
            <mxPoint x="-10" y="1" as="offset" />
          </mxGeometry>
        </mxCell>
        <mxCell id="Csb0ddg03DipR_3-16nn-5" value="Login&lt;div&gt;Check if account exists?&lt;/div&gt;" style="shape=process;whiteSpace=wrap;html=1;backgroundOutline=1;" vertex="1" parent="WIyWlLk6GJQsqaUBKTNV-1">
          <mxGeometry x="180" y="340" width="120" height="60" as="geometry" />
        </mxCell>
        <mxCell id="Csb0ddg03DipR_3-16nn-9" style="edgeStyle=orthogonalEdgeStyle;rounded=0;orthogonalLoop=1;jettySize=auto;html=1;entryX=0.443;entryY=0.011;entryDx=0;entryDy=0;entryPerimeter=0;" edge="1" parent="WIyWlLk6GJQsqaUBKTNV-1" source="yd8T2iFx35O8DrpGIfBC-50" target="yd8T2iFx35O8DrpGIfBC-51">
          <mxGeometry relative="1" as="geometry" />
        </mxCell>
        <mxCell id="Csb0ddg03DipR_3-16nn-10" style="edgeStyle=orthogonalEdgeStyle;rounded=0;orthogonalLoop=1;jettySize=auto;html=1;entryX=0.445;entryY=-0.012;entryDx=0;entryDy=0;entryPerimeter=0;" edge="1" parent="WIyWlLk6GJQsqaUBKTNV-1" source="yd8T2iFx35O8DrpGIfBC-22" target="yd8T2iFx35O8DrpGIfBC-50">
          <mxGeometry relative="1" as="geometry" />
        </mxCell>
        <mxCell id="Csb0ddg03DipR_3-16nn-11" value="True" style="edgeLabel;html=1;align=center;verticalAlign=middle;resizable=0;points=[];" vertex="1" connectable="0" parent="Csb0ddg03DipR_3-16nn-10">
          <mxGeometry x="-0.3433" y="1" relative="1" as="geometry">
            <mxPoint as="offset" />
          </mxGeometry>
        </mxCell>
        <mxCell id="Csb0ddg03DipR_3-16nn-21" value="Register form will look the same as the login just with the added email function" style="shape=hexagon;perimeter=hexagonPerimeter2;whiteSpace=wrap;html=1;fixedSize=1;" vertex="1" parent="WIyWlLk6GJQsqaUBKTNV-1">
          <mxGeometry x="310" y="535" width="160" height="100" as="geometry" />
        </mxCell>
        <mxCell id="Csb0ddg03DipR_3-16nn-24" style="edgeStyle=orthogonalEdgeStyle;rounded=0;orthogonalLoop=1;jettySize=auto;html=1;entryX=0.564;entryY=0;entryDx=0;entryDy=0;entryPerimeter=0;" edge="1" parent="WIyWlLk6GJQsqaUBKTNV-1" source="Csb0ddg03DipR_3-16nn-21" target="yd8T2iFx35O8DrpGIfBC-36">
          <mxGeometry relative="1" as="geometry" />
        </mxCell>
        <mxCell id="Csb0ddg03DipR_3-16nn-30" value="" style="edgeStyle=orthogonalEdgeStyle;rounded=0;orthogonalLoop=1;jettySize=auto;html=1;" edge="1" parent="WIyWlLk6GJQsqaUBKTNV-1" source="Csb0ddg03DipR_3-16nn-25" target="Csb0ddg03DipR_3-16nn-29">
          <mxGeometry relative="1" as="geometry" />
        </mxCell>
        <mxCell id="Csb0ddg03DipR_3-16nn-25" value="Backend server saving and authenticating new user then redirecting to User Home Page" style="shape=internalStorage;whiteSpace=wrap;html=1;backgroundOutline=1;" vertex="1" parent="WIyWlLk6GJQsqaUBKTNV-1">
          <mxGeometry x="-130" y="880" width="210" height="160" as="geometry" />
        </mxCell>
        <mxCell id="Csb0ddg03DipR_3-16nn-28" style="edgeStyle=orthogonalEdgeStyle;rounded=0;orthogonalLoop=1;jettySize=auto;html=1;entryX=0.543;entryY=1;entryDx=0;entryDy=0;entryPerimeter=0;" edge="1" parent="WIyWlLk6GJQsqaUBKTNV-1" source="Csb0ddg03DipR_3-16nn-25" target="yd8T2iFx35O8DrpGIfBC-57">
          <mxGeometry relative="1" as="geometry" />
        </mxCell>
        <mxCell id="Csb0ddg03DipR_3-16nn-29" value="" style="triangle;whiteSpace=wrap;html=1;direction=east;" vertex="1" parent="WIyWlLk6GJQsqaUBKTNV-1">
          <mxGeometry x="-345" y="920" width="60" height="80" as="geometry" />
        </mxCell>
      </root>
    </mxGraphModel>
  </diagram>
</mxfile>
